<svg width="159" height="167" xmlns="http://www.w3.org/2000/svg" xmlns:xlink="http://www.w3.org/1999/xlink">
    <defs>
        <path id="a" d="M0 0h10.359v55.349H0z"/>
    </defs>
    <g fill="none" fill-rule="evenodd">
        <path fill="#fff" d="m24.097 131.133-5.372 4.445 2.713-7.66-.893-1.077-7.432 6.148.92 1.11 5.414-4.48-2.728 7.729.865 1.046 7.432-6.15zM31.022 144.358c-1.281 1.5-3.481 1.793-4.981.512-1.49-1.273-1.536-3.48-.254-4.982 1.289-1.51 3.497-1.834 4.987-.562 1.5 1.281 1.538 3.521.248 5.032m-6.331-5.405c-1.773 2.075-1.608 5.158.477 6.938 2.096 1.79 5.178 1.478 6.95-.597 1.78-2.086 1.624-5.2-.473-6.99-2.085-1.78-5.174-1.437-6.954.65M36.881 144.278l2.445 1.506-4.368 7.098 1.23.755 4.368-7.097 2.445 1.505.69-1.12-6.12-3.768zM56.322 155.507c-.276.809-.99 1.467-2.05 1.104l-2.213-.756 1.116-3.26 2.265.775c1.02.349 1.158 1.328.882 2.137m-.43-3.373-3.656-1.25-3.122 9.128 1.364.467 1.156-3.378 2.292.783c1.96.67 3.262-.452 3.76-1.91.494-1.445.167-3.17-1.794-3.84M64.032 154.276l-1.417-.27-1.812 9.476 5.226 1 .247-1.293-3.81-.729zM73.025 161.488l1.755-4.122 1.336 4.271-3.091-.149zm1.07-5.907-4.116 9.461 1.51.073 1.014-2.392 4.013.195.779 2.477 1.51.073-3.172-9.813-1.538-.074zM88.206 155.137l-7.155.608.11 1.312 2.86-.243.706 8.298 1.437-.122-.706-8.299 2.859-.242zM97.665 157.535l-3.292.744-.646-2.854 4.153-.94-.29-1.284-5.561 1.258 2.129 9.412 1.407-.318-.902-3.99 3.293-.744zM108.351 158.432c-1.818.73-3.796-.259-4.529-2.09-.74-1.845.001-3.95 1.82-4.678 1.831-.733 3.832.274 4.57 2.12.734 1.831-.03 3.915-1.86 4.648m-3.21-8.015c-2.547 1.02-3.679 3.914-2.659 6.46 1.014 2.534 3.821 3.822 6.368 2.802 2.56-1.025 3.714-3.899 2.7-6.433-1.02-2.545-3.85-3.853-6.41-2.829M118.757 149.082l-1.61.987-1.814-2.962 1.9-1.161c.798-.49 1.692-.183 2.217.676.535.872.441 1.766-.693 2.46m1.924-3.212c-.797-1.302-2.322-2.157-4.125-1.054l-3.14 1.923 5.036 8.225 1.23-.753-1.879-3.067.932-.571 3.99 1.775 1.47-.9-4.04-1.744c1.293-.973 1.25-2.652.526-3.834M128.934 135.169l2.153 7.392-7.104-2.97-.962.859 5.554 7.98 1.064-.951-4.028-5.791 6.118 2.497.92-.822-1.815-6.342 5.302 4.654 1.067-.952-7.308-6.413zM142.686 129.724c-1.112-.873-2.392-.58-3.736.428l-1.017.75c-1.006.757-1.561.445-1.804.255-.693-.546-.664-1.556-.101-2.27.614-.782 1.55-.954 2.265-.392l.883-1.122c-1.386-1.089-3.084-.698-4.157.666-1.056 1.343-1.09 3.221.241 4.267.627.493 1.792.982 3.471-.315l1.004-.778c.649-.486 1.443-.84 2.115-.312.627.493.783 1.47.073 2.373-.742.946-1.845 1.058-2.511.57l-.883 1.122c1.221.96 3.157.738 4.428-.879 1.204-1.529.994-3.367-.271-4.363M9.794 50.673c-1.301-.553-2.461.064-3.496 1.39l-.785.989c-.773.995-1.391.84-1.674.719-.812-.345-1.048-1.327-.693-2.165.388-.915 1.248-1.326 2.085-.97l.559-1.315c-1.624-.69-3.16.134-3.84 1.732-.666 1.57-.208 3.393 1.35 4.056.735.312 1.988.479 3.269-1.213l.765-1.013c.5-.64 1.175-1.19 1.96-.856.735.312 1.142 1.215.693 2.272-.47 1.108-1.505 1.505-2.277 1.208l-.558 1.314c1.43.608 3.242-.114 4.047-2.007.76-1.791.076-3.512-1.405-4.141M16.26 45.04c1.01-1.632.793-3.708-1.09-4.871l-5.386-3.327-.757 1.227 5.373 3.32c1.251.773 1.29 1.965.693 2.93-.597.965-1.672 1.453-2.923.68l-5.374-3.32-.759 1.228 5.387 3.327c1.882 1.162 3.828.439 4.836-1.193M15.542 31.466 17.1 29.65c.702-.82 1.663-.585 2.311-.03.648.556.996 1.462.267 2.313l-1.522 1.774-2.614-2.241zm6.323 5.42-2.71-2.322 1.576-1.84c1.349-1.571.787-3.196-.382-4.197-1.159-.995-2.882-1.33-4.23.245l-2.514 2.932 7.321 6.278.939-1.095zM24.002 22.633l1.81-1.567c.815-.706 1.73-.333 2.29.312.56.646.77 1.594-.077 2.327l-1.767 1.532-2.256-2.604zm5.456 6.298-2.338-2.7 1.83-1.585c1.568-1.358 1.252-3.048.243-4.212-1-1.154-2.655-1.74-4.222-.382l-2.921 2.53 6.318 7.294 1.09-.945zM35.054 18.41c-1.035-1.695-.655-3.895 1.02-4.915 1.683-1.027 3.824-.366 4.86 1.33 1.026 1.686.62 3.868-1.065 4.896-1.673 1.02-3.787.375-4.815-1.31m5.515 2.457c2.354-1.436 3.016-4.463 1.595-6.793-1.428-2.342-4.437-3.162-6.79-1.726-2.343 1.427-2.979 4.47-1.55 6.813 1.42 2.33 4.402 3.135 6.745 1.706M48.18 11.306 46.892 8.08l2.069-.826c.87-.347 1.7.106 2.074 1.042.379.95.137 1.816-1.1 2.31l-1.755.7zm.467 1.17 1.015-.404 3.637 2.423 1.6-.638-3.69-2.404c1.44-.74 1.68-2.404 1.166-3.692-.566-1.418-1.925-2.518-3.89-1.734l-3.42 1.365 3.576 8.963 1.34-.535-1.334-3.344zM60.218 3.773l2.79-.673-.31-1.279-6.98 1.683.308 1.28 2.79-.673 1.953 8.1 1.402-.34zM69.296.888l-1.431.174 1.167 9.573 1.43-.175zM77.14 2.94l4.066 7.11 1.358.028.2-9.64-1.442-.03-.144 6.968L77.153.322l-1.4-.029-.2 9.64 1.442.03zM97.11 7.13l-4.287-.75-.212 1.213 2.729.477c-.243 1.392-1.78 2.217-3.378 1.938-1.93-.337-3.118-2.235-2.778-4.18.343-1.956 2.109-3.366 4.025-3.031a3.43 3.43 0 0 1 2.129 1.31l1.15-.737a4.783 4.783 0 0 0-3.05-1.883c-2.702-.472-5.201 1.392-5.674 4.093-.47 2.689 1.24 5.26 3.983 5.739 2.688.47 4.772-.812 5.363-4.19M113.612 11.338c-.35.779-1.12 1.37-2.141.913l-2.134-.955 1.406-3.144 2.185.979c.984.439 1.033 1.428.684 2.207m1.316.589c.623-1.393.454-3.14-1.437-3.986l-3.527-1.578-3.94 8.803 1.317.589 1.458-3.258 2.21.989c1.892.846 3.29-.154 3.919-1.56M121.585 22.07l-3.778-2.404 1.48-2.326 3.199 2.036.714-1.12-3.2-2.039 1.57-2.467 3.673 2.337.706-1.11-4.877-3.103-5.176 8.135 4.983 3.171zM128.072 22.58c1.317-1.49 3.532-1.773 5-.475 1.48 1.309 1.478 3.55.16 5.04-1.308 1.479-3.514 1.734-4.993.425-1.468-1.3-1.475-3.51-.167-4.99m-.724 5.997c2.066 1.827 5.155 1.569 6.965-.476 1.818-2.056 1.716-5.174-.35-7.002-2.056-1.82-5.153-1.53-6.972.526-1.808 2.045-1.699 5.134.357 6.952M141.414 30.837l1.508 1.859c.679.837.276 1.74-.387 2.28-.663.537-1.618.716-2.323-.154l-1.473-1.815 2.675-2.17zm-6.47 5.247 2.773-2.25 1.526 1.882c1.305 1.609 3.004 1.349 4.2.379 1.184-.961 1.823-2.597.518-4.205l-2.433-3.001-7.491 6.075.908 1.12zM149.661 40.033l-.744-1.236-8.264 4.979 2.746 4.558 1.127-.68-2-3.322zM148.79 56.888l-1.774-4.114 2.532-1.093 1.503 3.485 1.221-.527-1.502-3.484 2.687-1.159 1.725 3.998 1.208-.52-2.29-5.31-8.858 3.82 2.34 5.425z"/>
        <g transform="translate(.5 65.041)">
            <mask id="b" fill="#fff">
                <use xlink:href="#a"/>
            </mask>
            <path d="M3.026.227 2.052 0A79.021 79.021 0 0 0 0 17.914c0 13.075 3.278 26.02 9.48 37.435l.879-.476C4.236 43.603.999 30.823.999 17.914 1 11.942 1.683 5.992 3.027.227" fill="#0B0B09" mask="url(#b)"/>
        </g>
        <path d="m155.868 65.042-.974.227a77.93 77.93 0 0 1 2.026 17.686c0 12.909-3.236 25.69-9.358 36.959l.88.477c6.2-11.415 9.478-24.361 9.478-37.436 0-6.048-.69-12.074-2.052-17.913" fill="#0B0B09"/>
    </g>
</svg>
