<svg width="200" height="40" xmlns="http://www.w3.org/2000/svg" xmlns:xlink="http://www.w3.org/1999/xlink">
    <defs>
        <path id="a" d="M0 0h39v39H0z"/>
        <path id="c" d="M0 0h42.631v31.737H0z"/>
        <path id="e" d="M0 0h22.075v26.266H0z"/>
        <path id="g" d="M0 0h14.729v13.768H0z"/>
    </defs>
    <g fill="none" fill-rule="evenodd">
        <g transform="translate(.028 .5)">
            <circle fill="#FFF" cx="19.886" cy="20.905" r="15.071"/>
            <mask id="b" fill="#fff">
                <use xlink:href="#a"/>
            </mask>
            <path d="M25.417 35.317c-.4 0-.81-.032-1.219-.102l-.424-.071c-1.818-.305-2.647-.444-3.87-1.178-.373-.224-.831-.5-1.26-.888l-.01.002c-.163.004-.325.007-.483.007-3.89 0-6.514-1.542-7.725-2.45l-.04.066a.794.794 0 0 1-1.174.23c-.942-.726-1.443-2.064-1.701-3.103a.795.795 0 0 1-1.023-.267c-.668-.999-.643-2.402-.527-3.323a2.363 2.363 0 0 0-.134.024.795.795 0 0 1-.948-.626c-.35-1.797.799-3.956 1.723-5.145a.793.793 0 0 1-.455-.974c.488-1.528 1.708-2.544 2.632-3.123a.796.796 0 0 1 .039-1.153c.236-.21.556-.391.913-.553-.272-.54-.796-1.066-1.013-1.25a.699.699 0 0 1 .411-1.23c.234-.014 1.876-.086 3.104.456.115-.814-.017-1.7-.102-2.055a.699.699 0 0 1 .96-.803c.25.11 2.173 1.001 2.776 2.52a.704.704 0 0 1 .066-.074 5.643 5.643 0 0 0-.33-1.635.696.696 0 0 1 .827-.924 5.14 5.14 0 0 1 1.423.65 10.463 10.463 0 0 0-.533-1.285.842.842 0 0 1 1.189-1.103c.253.153 2.023 1.26 3.163 2.678a7.175 7.175 0 0 0 .339-1.96.843.843 0 0 1 1.504-.505c.202.255 1.567 2.032 2.061 3.827.03.009.06.014.09.023.163-.53.24-1.134.242-1.538a.845.845 0 0 1 1.474-.554c.297.335 1.436 1.696 1.897 3.147.079.038.165.068.24.111A7.092 7.092 0 0 0 31.127 9.7a.843.843 0 0 1 1.486.279c.089.318.724 2.76-.144 4.47 1.505 2.12 1.622 4.318 1.46 5.879.83.686 1.32 1.586 1.408 2.633.5.67.946 1.103 2.194 2.253.174.16.329.298.476.427.64-1.932.992-3.994.992-6.14C39 8.73 30.27 0 19.5 0S0 8.73 0 19.5 8.73 39 19.5 39c3.35 0 6.503-.846 9.257-2.334a15.535 15.535 0 0 1-3.063-1.355 6.684 6.684 0 0 1-.277.006" fill="#A478F9" mask="url(#b)"/>
            <path d="M10.63 20.533a.534.534 0 0 0-.608.44c-.042.273-.4 2.702.42 4.041a.53.53 0 0 0 .86.063l.14-.169c.289.836.795 1.999 1.529 2.64a.53.53 0 0 0 .698-.798c-.788-.689-1.34-2.447-1.486-3.066a.53.53 0 0 0-.927-.215l-.183.221c-.18-.908-.078-2.071-.003-2.55a.531.531 0 0 0-.44-.607M23.081 33.41c-1.82-1.632-2.976-3.423-3.41-4.677a3.25 3.25 0 0 1-.619-.326c-.662 2.782.608 3.557 1.67 4.194.765.458 1.298.616 2.36.809M38.34 31.72c-.654.274-1.31.195-1.466-.176-.155-.37.249-.893.903-1.167.653-.274 1.31-.195 1.465.176.155.37-.25.894-.903 1.167m-4.202.657c-.076-.005-.152-.008-.23-.018-.981-.126-1.73-.594-1.672-1.047.058-.453.9-.719 1.882-.593a3.23 3.23 0 0 1 1.094.33c.38.2.611.46.578.716-.053.417-.773.672-1.652.612m11.652-.25c-.057-.104-.332-.49-1.464-1.053-.427-.214-.83-.412-1.22-.604-1.212-.596-2.358-1.16-3.652-1.909-.873-.505-1.408-.834-2.042-1.345-.286-.23-.59-.494-.957-.832-.305-.281-.562-.52-.792-.737a.773.773 0 0 1-.189-.093c-.312-.215-.748-.431-1.267-.615a9.055 9.055 0 0 0-2.955-.504c-1.082 0-2.036.209-2.929.638a7.03 7.03 0 0 0-1.127.676.796.796 0 1 1-.944-1.28c1.485-1.094 3.12-1.626 5-1.626.793 0 1.533.097 2.208.243.098.02.197.04.292.062a2.218 2.218 0 0 0-.184-.752c-.242-.556-.72-1.006-1.44-1.338-2.106-.969-3.776-3.627-3.847-3.74-1.036-1.551-1.823-1.701-2.52-1.624-1.223.131-1.993.819-2.11 1.887l-.032.146c-.02.072-.05.327-.07.514-.078.654-.174 1.468-.501 1.995-.82 1.325-2.04 2.185-2.38 2.41-.204.195-.454.349-.718.51-.707.436-1.177.775-1.282 1.485-.042.285-.049.49-.007.683.05.229.172.445.383.749.09.13.193.272.32.445.071.1.143.183.215.261.274.297.56.463.96.56l.591.145.016.608c0 .024.006.052.017.085.459 1.372 1.96 3.53 4.434 5.208.152.103.312.203.472.302.33.206.671.404 1.033.589.322.165.659.32 1.007.463.52.217 1.063.41 1.637.57.272.077.564.147.869.21 4.482.935 12.203.508 14.614-1.952.3-.305.801-1 .56-1.44" fill="#A478F9"/>
            <g transform="translate(4.815 5.834)">
                <mask id="d" fill="#fff">
                    <use xlink:href="#c"/>
                </mask>
                <path d="M14.237 22.573c.193.127.395.24.618.327.435 1.254 1.59 3.044 3.411 4.676-1.061-.193-1.594-.35-2.359-.809-1.061-.637-2.332-1.412-1.67-4.194M27.271 11.6a1.348 1.348 0 0 0-.18-.37c-.352-.509-.968-.668-1.373-.358a.872.872 0 0 0-.32.59c-.129-.167-.24-.319-.33-.446l-.055-.079v-.019c-.022-.381.108-.742.39-.957.48-.368 1.21-.179 1.63.424.265.382.34.838.238 1.215M12.12 10.153c.691-.53 1.74-.256 2.343.61.383.55.491 1.205.344 1.747a1.944 1.944 0 0 0-.258-.533c-.508-.73-1.393-.96-1.976-.514-.409.313-.554.875-.434 1.435-.063-.07-.125-.14-.18-.219-.604-.866-.531-1.997.16-2.526M5.629 19.18c-.821-1.339-.463-3.768-.42-4.04a.532.532 0 0 1 1.048.166c-.076.479-.178 1.642.002 2.55l.183-.22a.53.53 0 0 1 .926.215c.147.618.7 2.377 1.488 3.065a.531.531 0 0 1-.699.799c-.734-.642-1.24-1.805-1.529-2.64l-.14.168a.53.53 0 0 1-.86-.062M25.8 29.685a13.557 13.557 0 0 1-.869-.21 14.246 14.246 0 0 1-1.637-.57 14.112 14.112 0 0 1-1.007-.464 13.908 13.908 0 0 1-1.032-.589c-.16-.1-.32-.199-.473-.302-2.474-1.679-3.975-3.836-4.434-5.208a.326.326 0 0 1-.017-.085l-.016-.608-.59-.144a1.79 1.79 0 0 1-.96-.56 2.874 2.874 0 0 1-.217-.261 28.133 28.133 0 0 1-.319-.446c-.21-.304-.334-.52-.383-.75-.041-.192-.035-.397.007-.682.105-.71.576-1.049 1.283-1.484.263-.162.513-.316.717-.511.34-.225 1.56-1.085 2.38-2.41.327-.527.423-1.341.5-1.995.022-.187.052-.442.072-.514l.03-.146c.118-1.068.888-1.756 2.112-1.887.696-.077 1.482.074 2.52 1.625.07.113 1.74 2.77 3.846 3.74.72.33 1.198.78 1.44 1.337.102.233.167.482.184.752-.094-.022-.194-.041-.291-.062a10.431 10.431 0 0 0-2.209-.243c-1.88 0-3.515.532-5 1.626a.796.796 0 1 0 .944 1.28c.368-.27.742-.491 1.127-.676.893-.429 1.847-.638 2.93-.638a9.021 9.021 0 0 1 2.954.504c.52.185.956.4 1.268.616a.79.79 0 0 0 .188.093c.23.217.487.455.792.736.368.338.672.602.957.832.635.51 1.169.84 2.042 1.345 1.294.75 2.44 1.313 3.653 1.91.39.191.792.39 1.22.603 1.13.564 1.406.949 1.463 1.053.24.441-.262 1.135-.561 1.44-2.41 2.46-10.132 2.887-14.614 1.953m16.572-4.156c-.326-.595-1.03-1.156-2.152-1.714-.427-.215-.833-.414-1.226-.607-1.239-.61-2.31-1.137-3.557-1.859-.976-.563-1.457-.859-2.242-1.544a20.435 20.435 0 0 1-.476-.427c-1.25-1.15-1.694-1.583-2.195-2.252-.088-1.048-.579-1.947-1.407-2.634.162-1.561.045-3.759-1.462-5.88.869-1.71.234-4.15.145-4.468a.843.843 0 0 0-1.486-.28 7.092 7.092 0 0 1-1.61 1.488c-.074-.044-.16-.073-.239-.111-.46-1.452-1.6-2.813-1.896-3.147a.843.843 0 0 0-1.474.554 5.825 5.825 0 0 1-.243 1.537c-.03-.008-.06-.014-.09-.023C20.268 2.368 18.903.591 18.7.336a.843.843 0 0 0-1.504.505 7.178 7.178 0 0 1-.339 1.96c-1.14-1.418-2.91-2.525-3.163-2.678a.843.843 0 0 0-1.19 1.103c.17.332.37.8.535 1.285a5.134 5.134 0 0 0-1.424-.65.697.697 0 0 0-.826.925c.104.272.309.964.33 1.634a.906.906 0 0 0-.067.074c-.603-1.519-2.526-2.41-2.776-2.52a.699.699 0 0 0-.96.804c.085.354.217 1.24.103 2.054-1.228-.541-2.872-.47-3.104-.455a.697.697 0 0 0-.411 1.229c.216.184.74.71 1.012 1.25-.357.162-.677.344-.913.553a.796.796 0 0 0-.039 1.153c-.924.58-2.144 1.595-2.632 3.123a.793.793 0 0 0 .456.974c-.925 1.19-2.073 3.349-1.724 5.145a.796.796 0 0 0 .948.627c.042-.01.087-.018.134-.025-.115.921-.141 2.325.528 3.323a.795.795 0 0 0 1.022.267c.258 1.039.76 2.377 1.702 3.103a.79.79 0 0 0 .639.151.796.796 0 0 0 .535-.38l.039-.067c1.211.908 3.835 2.45 7.725 2.45.159 0 .32-.002.483-.008l.01-.001c.43.388.887.664 1.26.888 1.223.734 2.053.873 3.87 1.178l.425.072a7.311 7.311 0 0 0 1.495.095c.922.535 1.946.997 3.063 1.355.186.06.369.123.56.177 1.677.468 3.924.728 6.263.728 4.245 0 8.793-.858 10.785-2.89.817-.834 1.462-2.143.82-3.317" fill="#3B1D56" mask="url(#d)"/>
            </g>
            <path d="M37.777 30.377c-.654.273-1.058.796-.903 1.168.156.37.812.45 1.465.175.654-.274 1.058-.796.903-1.167-.155-.371-.811-.45-1.465-.176M35.21 31.048a3.252 3.252 0 0 0-1.093-.33c-.982-.125-1.824.14-1.882.594-.058.453.69.922 1.673 1.047.077.01.153.013.23.018.878.06 1.598-.194 1.651-.611.033-.257-.198-.516-.578-.718" fill="#3B1D56"/>
        </g>
        <g transform="translate(56.98 6.867)">
            <mask id="f" fill="#fff">
                <use xlink:href="#e"/>
            </mask>
            <path d="M20.484 2.542c-.08-.066-.173-.119-.257-.18a1.186 1.186 0 0 0-.234-.363C19.02.985 17.463-.184 15.57.024a1.207 1.207 0 0 0-.931.634c-.987-.13-2.45-.204-3.626.227a1.198 1.198 0 0 0-.775 1.274C9.222 2.68 8.234 3.587 7.956 5.03c-.11.572.208 1.126.729 1.335-.006.371.021.752.09 1.146a6.54 6.54 0 0 0 .66 2.123c.331.644.712 1.25 1.142 1.818.428.568.884 1.12 1.367 1.657.482.535.953 1.066 1.415 1.592.461.526.873 1.072 1.238 1.64.365.569.644 1.174.836 1.817.108.495.161.945.161 1.353a3.45 3.45 0 0 1-.322 1.64 3.482 3.482 0 0 1-1.012 1.254c-.44.343-.956.611-1.545.804-.59.193-1.228.29-1.914.29a8.698 8.698 0 0 1-2.46-.354 7.895 7.895 0 0 1-2.156-.982 6.683 6.683 0 0 1-1.592-1.447c-.429-.547-.687-1.13-.773-1.753-.063-.493-.004-.922.178-1.287.181-.364.44-.675.772-.933.332-.257.724-.46 1.174-.611.45-.15.911-.257 1.384-.322a6.045 6.045 0 0 0 1.286-.353c.364-.15.515-.44.45-.869a1.689 1.689 0 0 0-.756-1.158 3.976 3.976 0 0 0-1.367-.578 8.81 8.81 0 0 0-.917-.081 3.9 3.9 0 0 0-.82.048c-.879.086-1.662.338-2.347.756A5.89 5.89 0 0 0 1.15 15.12a5.894 5.894 0 0 0-.965 2.027 5.466 5.466 0 0 0-.128 2.204c.128.9.467 1.763 1.013 2.589.547.825 1.265 1.56 2.154 2.203.891.643 1.948 1.158 3.17 1.544 1.222.386 2.594.58 4.116.58 1.952 0 3.625-.242 5.02-.725 1.393-.482 2.513-1.126 3.36-1.93.848-.805 1.432-1.737 1.754-2.799.322-1.061.396-2.17.225-3.329-.172-.985-.681-2.02-1.528-3.103-.848-1.084-1.979-2.386-3.394-3.909-1.05-1.18-1.807-2.112-2.267-2.799-.462-.686-.735-1.287-.821-1.8-.043-.3 0-.575.129-.821.128-.247.311-.461.547-.644.235-.182.514-.322.836-.418.322-.096.653-.144.997-.144.815 0 1.42.144 1.818.434.397.289.637.584.723.884a3.42 3.42 0 0 1-.53.725c-.183.181-.35.342-.499.482-.15.139-.285.268-.402.385a.96.96 0 0 0-.242.37c.022.215.156.435.403.66.246.225.535.423.869.596.332.17.675.315 1.029.434.353.117.637.176.853.176.278 0 .595-.09.948-.273.353-.183.67-.44.95-.773.277-.332.493-.734.642-1.206.15-.47.182-.996.097-1.576-.172-1.029-.686-1.903-1.544-2.622" fill="#FFF" mask="url(#f)"/>
        </g>
        <path d="M124.186 22.63c-.181.805-.359 1.624-.53 2.461-.107.386-.21.756-.306 1.11a3.721 3.721 0 0 1-.386.933 1.846 1.846 0 0 1-.643.644c-.27.16-.628.252-1.078.273-.322 0-.579-.081-.772-.242-.193-.161-.322-.455-.385-.884-.066-.515-.006-1.137.176-1.866.182-.728.45-1.448.803-2.155a7.835 7.835 0 0 1 1.287-1.866c.505-.536 1.046-.868 1.626-.996.385-.044.632.01.74.16-.173.815-.35 1.624-.532 2.429m-16.228-.161c.172-.504.38-.944.627-1.32.247-.374.515-.669.805-.884.289-.214.583-.322.884-.322.3 0 .52.086.66.258.138.171.23.386.273.643.065.386.004.788-.177 1.207a3.44 3.44 0 0 1-.772 1.109 3.585 3.585 0 0 1-1.19.756 2.827 2.827 0 0 1-1.432.176c.043-.578.15-1.12.322-1.623m73.968-9.699a12.181 12.181 0 0 0-.852-2.14c-.322-.611-.682-1.093-1.077-1.446-.397-.355-.8-.531-1.207-.531-.3.022-.627.058-.98.112-.355.054-.677.15-.967.29-.289.14-.52.332-.69.579-.173.247-.226.562-.161.949.02.45.128.89.322 1.319.192.429.406.9.642 1.415s.467 1.1.692 1.754c.225.653.392 1.43.499 2.332.129 1.414.129 2.787 0 4.117s-.354 2.514-.676 3.554c-.322 1.04-.723 1.872-1.206 2.493-.483.622-1.014.933-1.593.933-.364 0-.718-.16-1.061-.483-.344-.321-.558-.664-.644-1.029-.15-.965-.144-1.876.017-2.735.16-.856.423-1.618.787-2.283a5.585 5.585 0 0 1 1.351-1.656 4.733 4.733 0 0 1 1.706-.917c.364-.129.503-.42.417-.87a.84.84 0 0 0-.417-.626c-.236-.14-.526-.209-.869-.209a7.15 7.15 0 0 0-2.927.627 6.71 6.71 0 0 0-2.46 1.882c-.698.836-1.202 1.887-1.513 3.152-.211.862-.28 1.831-.23 2.891-.367.409-.732.793-1.088 1.13-.591.557-1.11.837-1.561.837-.45 0-.675-.15-.675-.45a134.819 134.819 0 0 1 .257-1.513c.15-.728.31-1.372.483-1.93.171-.557.338-1.061.499-1.511l.434-1.223c.128-.364.235-.729.322-1.093v-.338a1.5 1.5 0 0 0-.065-.403c0-.02.01-.031.032-.031h-.032c.085-.214.075-.483-.033-.805-.107-.236-.326-.456-.658-.66-.334-.203-.875-.305-1.626-.305-.471 0-.884.14-1.238.417-.353.28-.66.644-.916 1.095-.257.45-.473.965-.644 1.543-.171.58-.316 1.154-.434 1.722a19.97 19.97 0 0 0-.273 1.64c-.065.526-.118.97-.161 1.335a13.95 13.95 0 0 0-.29.483c-.086.15-.183.279-.289.385-.537.688-1.04 1.18-1.512 1.48-.472.301-.89.451-1.255.451-.321 0-.589-.059-.803-.177-.216-.118-.344-.316-.387-.595a2.1 2.1 0 0 1-.049-.273.802.802 0 0 1 .05-.338c.042-.407.117-.896.225-1.464.106-.567.24-1.174.401-1.817a49.398 49.398 0 0 1 1.206-4.053c.215-.022.446-.033.692-.033.247 0 .478-.01.692-.031.3-.022.621-.075.965-.161.342-.086.648-.214.917-.387.268-.171.482-.402.643-.691.16-.29.21-.648.145-1.077a2.832 2.832 0 0 0-.434-.597c-.204-.224-.424-.336-.66-.336h-1.576c.236-.493.472-.923.708-1.287.235-.365.46-.707.675-1.03.193-.17.31-.332.354-.482a.926.926 0 0 0 0-.482c-.064-.43-.311-.821-.74-1.175a4.488 4.488 0 0 0-1.383-.787 3.428 3.428 0 0 0-1.254-.226c-.816.172-1.534.777-2.156 1.817-.623 1.04-1.158 2.279-1.608 3.715-.836 0-1.496.081-1.979.242-.482.161-.67.574-.562 1.238.043.366.23.66.562.885.333.224.734.402 1.207.531a57.3 57.3 0 0 0-.514 2.476c-.15.816-.275 1.583-.37 2.3-.045.332-.086.649-.123.957-.68.979-1.32 1.773-1.92 2.373-.622.623-1.158.932-1.609.932-.236 0-.402-.036-.498-.112-.097-.075-.167-.197-.21-.37-.085-.58 0-1.239.258-1.978.257-.74.541-1.496.852-2.268a16.67 16.67 0 0 0 .74-2.268c.183-.74.156-1.42-.08-2.042a2.245 2.245 0 0 0-.884-1.126c-.42-.279-.95-.419-1.593-.419-.665 0-1.35.204-2.06.612-.706.408-1.425.943-2.154 1.608 0-.665-.23-1.2-.69-1.608-.463-.408-1.1-.612-1.915-.612-.708 0-1.512.264-2.413.788a9.207 9.207 0 0 0-2.444 2.108c.042-.322.117-.605.225-.853.107-.246.209-.466.305-.659l.257-.514a.682.682 0 0 0 .081-.419c-.044-.236-.193-.434-.45-.595a3.124 3.124 0 0 0-.9-.37 4.676 4.676 0 0 0-.854-.177 7.246 7.246 0 0 0-.788-.048c-.364.022-.724.262-1.077.724-.354.46-.676 1.045-.966 1.753a15.47 15.47 0 0 0-.74 2.396 20.81 20.81 0 0 0-.433 2.654 81.9 81.9 0 0 0-.13 1.335c-.004.06-.004.125-.01.186-.501.58-.977 1.073-1.42 1.47-.504.45-.993.676-1.464.676-.45 0-.686-.181-.708-.547a16.6 16.6 0 0 1 .386-1.962c.558-2.273.96-3.977 1.207-5.115.246-1.137.38-1.844.402-2.122a1.691 1.691 0 0 0-.483-.709 3.594 3.594 0 0 0-.804-.546 4.838 4.838 0 0 0-.965-.354 3.922 3.922 0 0 0-.933-.129c-.171 0-.354.044-.547.129-.192.086-.31.193-.353.322l-.29.868a5.71 5.71 0 0 0-.563-.176 2.568 2.568 0 0 0-.66-.081c-.964 0-1.967.317-3.007.949a11.611 11.611 0 0 0-2.815 2.428 11.676 11.676 0 0 0-1.962 3.265 7.537 7.537 0 0 0-.383 1.335c-.519.562-1.08 1.07-1.692 1.512a6.173 6.173 0 0 1-3.49 1.19c-.9-.063-1.533-.326-1.898-.788-.364-.46-.578-1.056-.644-1.785.987 0 1.926-.15 2.815-.45.89-.3 1.663-.703 2.316-1.206a5.201 5.201 0 0 0 1.497-1.77c.343-.676.46-1.4.353-2.171-.15-.837-.552-1.506-1.206-2.01-.654-.504-1.592-.757-2.815-.757-.858 0-1.64.092-2.347.273a7.699 7.699 0 0 0-1.882.74 6.345 6.345 0 0 0-2.397 2.365c-.493.858-.81 1.823-.95 2.894a10.7 10.7 0 0 0-.074 1.9c-.066.085-.132.168-.198.256-.494.687-1.025 1.234-1.592 1.64-.57.409-1.046.623-1.432.645-.472 0-.708-.161-.708-.483-.064-.322-.01-.74.16-1.255.172-.515.382-1.077.628-1.689.246-.61.477-1.228.693-1.849a7.095 7.095 0 0 0 .385-1.737c.085-.815-.07-1.404-.466-1.77-.397-.364-.895-.632-1.496-.803-.301.043-.611.102-.933.177a4.513 4.513 0 0 1-1.029.112c-.344 0-.756-.037-1.239-.112-.482-.075-.831-.23-1.045-.467.107-.364.23-.692.37-.981a5.08 5.08 0 0 1 .466-.789c.343-.342.397-.67.161-.981-.236-.31-.595-.557-1.078-.74a5.6 5.6 0 0 0-1.528-.337c-.535-.043-.922.011-1.158.16-.558.194-1.029.611-1.414 1.255-.387.643-.515 1.49-.387 2.542.02.171.075.353.161.546.085.193.182.376.29.548.107.17.209.322.305.45.097.128.177.203.242.225a25.236 25.236 0 0 1-.95 3.04 13.526 13.526 0 0 1-1.318 2.606c-.505.761-1.058 1.366-1.657 1.816-.6.45-1.255.677-1.962.677-.279 0-.5-.054-.66-.161a.943.943 0 0 1-.354-.436 1.846 1.846 0 0 1-.128-.626 3.095 3.095 0 0 1 .048-.708c.107-.687.262-1.463.466-2.332.205-.868.456-1.785.756-2.75h1.158c.708 0 1.287-.197 1.738-.59.45-.393.62-.961.514-1.705-.044-.254-.215-.498-.514-.732-.302-.234-.87-.35-1.706-.35.236-.604.51-1.164.82-1.681.311-.517.596-.974.853-1.374.258-.397.467-.753.628-1.065.16-.313.23-.577.209-.792a2.217 2.217 0 0 0-.418-.84 3.383 3.383 0 0 0-.805-.744 4.668 4.668 0 0 0-1.03-.517 3.194 3.194 0 0 0-1.06-.194c-.237 0-.43.044-.58.13-.407.192-.788.492-1.142.9a8.493 8.493 0 0 0-1.013 1.496 14.81 14.81 0 0 0-.884 1.977c-.268.73-.51 1.492-.724 2.285-.322 0-.633.021-.934.064-.3.044-.556.118-.772.225a1.18 1.18 0 0 0-.498.467c-.117.204-.144.477-.08.82.085.45.263.783.53.997.27.214.639.375 1.11.483-.129.643-.241 1.291-.337 1.946a83.723 83.723 0 0 0-.258 1.882 42.958 42.958 0 0 0-.273 2.992c0 .6.097 1.157.29 1.672.278.707.675 1.255 1.19 1.64.514.387 1.136.58 1.865.58 1.308 0 2.456-.264 3.442-.788a9.242 9.242 0 0 0 2.59-2.043c.74-.837 1.383-1.77 1.93-2.799a42.596 42.596 0 0 0 1.464-3.024l.675-1.705c.193.065.434.119.724.161a42.557 42.557 0 0 1 1.737.305c.268.055.488.124.659.21-.043.128-.091.246-.145.354a31.41 31.41 0 0 0-.788 1.85 16.721 16.721 0 0 0-.563 1.705c-.16.59-.279 1.173-.354 1.753a6.008 6.008 0 0 0-.016 1.575c.408 1.544 1.534 2.317 3.377 2.317.665 0 1.373-.166 2.124-.498a9.156 9.156 0 0 0 2.09-1.287c.495-.404.91-.857 1.284-1.337.096.213.2.42.325.613a5.26 5.26 0 0 0 1.287 1.383c.515.386 1.11.681 1.785.885.675.203 1.4.305 2.171.305a9.08 9.08 0 0 0 3.089-.53c.985-.354 1.87-.816 2.653-1.384a9.84 9.84 0 0 0 .745-.603c.252.775.656 1.375 1.218 1.794.76.567 1.666.852 2.717.852.622-.043 1.298-.257 2.027-.644.73-.385 1.35-.986 1.866-1.8.17.879.52 1.478 1.045 1.8.526.322 1.206.483 2.043.483.621 0 1.318-.215 2.091-.644a10.85 10.85 0 0 0 2.14-1.56c.038-.036.073-.074.111-.11.07.397.183.755.354 1.06.192.321.423.563.692.724.267.16.53.267.787.32.258.054.488.076.692.065.203-.011.348-.016.435-.016a1.36 1.36 0 0 1 .192-.049.286.286 0 0 0 .161-.08c.279-.106.45-.332.515-.675.064-.343.128-.665.193-.965l.386-2.01c.15-.783.354-1.545.611-2.285a9.08 9.08 0 0 1 .965-1.994c.386-.589.858-.98 1.415-1.174.194-.043.386-.059.58-.048.193.011.342.038.45.08.043.343-.033.81-.225 1.4l-.644 1.962a44.292 44.292 0 0 0-.675 2.267 7.972 7.972 0 0 0-.29 2.316c.172.6.526.993 1.062 1.175a5.381 5.381 0 0 0 1.737.273c.428 0 .75-.07.965-.209.214-.139.343-.413.386-.82.086-.644.203-1.4.354-2.268.15-.869.359-1.71.627-2.525s.606-1.55 1.013-2.203c.408-.655.922-1.089 1.544-1.304.171-.063.338-.122.499-.177a.341.341 0 0 1 .402.114c.129.256.097.67-.097 1.238a71.465 71.465 0 0 1-.675 1.897 35.475 35.475 0 0 0-.707 2.124c-.214.719-.28 1.356-.194 1.913.128.752.515 1.309 1.159 1.673.643.364 1.436.547 2.38.547.686 0 1.404-.203 2.154-.611.751-.407 1.448-.911 2.092-1.512.22-.205.41-.415.606-.625l.069.336c.258.75.68 1.35 1.27 1.801.59.45 1.217.676 1.883.676.47 0 .96-.07 1.463-.21a7.88 7.88 0 0 0 1.48-.578 8.604 8.604 0 0 0 1.367-.87 7.155 7.155 0 0 0 1.126-1.077c.107.966.364 1.656.772 2.075.406.418 1.094.628 2.058.628.493 0 1.024-.119 1.592-.355a9.156 9.156 0 0 0 1.673-.917 10.754 10.754 0 0 0 1.529-1.27c.063-.063.112-.128.171-.191.222.57.538 1.067.97 1.478.654.622 1.453 1.019 2.397 1.19.3.043.606.07.917.08.31.011.616-.005.917-.048 1.307-.108 2.433-.44 3.377-.997a7.785 7.785 0 0 0 2.348-2.107 10.664 10.664 0 0 0 1.48-2.863c.365-1.062.621-2.166.772-3.313.15-1.147.22-2.305.21-3.475a35.778 35.778 0 0 0-.178-3.296 15.038 15.038 0 0 0-.531-2.606" fill="#FFF"/>
        <g transform="translate(183.312 17.66)">
            <mask id="h" fill="#fff">
                <use xlink:href="#g"/>
            </mask>
            <path d="M4.902 4.81c.172-.504.381-.944.628-1.32.246-.376.515-.67.804-.885.29-.214.584-.322.884-.322.3 0 .52.086.66.258.139.172.23.386.273.643.065.386.005.788-.177 1.207a3.44 3.44 0 0 1-.772 1.11 3.585 3.585 0 0 1-1.19.755 2.834 2.834 0 0 1-1.432.177c.044-.579.15-1.12.322-1.624m9.667 2.332c-.14-.214-.392-.322-.755-.322-.173 0-.291.054-.355.161a11.654 11.654 0 0 1-2.719 2.766 6.179 6.179 0 0 1-3.49 1.19c-.9-.064-1.533-.326-1.897-.787-.365-.461-.579-1.056-.644-1.785.986 0 1.925-.15 2.815-.45.89-.3 1.662-.703 2.316-1.207a5.203 5.203 0 0 0 1.497-1.77c.342-.675.46-1.399.353-2.17-.15-.838-.553-1.507-1.206-2.011C9.829.252 8.89 0 7.669 0 6.81 0 6.029.091 5.32.273a7.699 7.699 0 0 0-1.881.74 6.345 6.345 0 0 0-2.398 2.364C.55 4.235.233 5.2.093 6.272A10.272 10.272 0 0 0 .142 9.36c.129.688.365 1.298.707 1.834.343.536.772.997 1.287 1.384.515.385 1.11.68 1.786.884.675.204 1.4.306 2.171.306a9.08 9.08 0 0 0 3.088-.531c.986-.354 1.87-.815 2.653-1.384.783-.567 1.426-1.195 1.93-1.882.504-.685.821-1.371.95-2.058.043-.3-.006-.558-.145-.772" fill="#FFF" mask="url(#h)"/>
        </g>
        <path d="M167.796 14.582c1.602-.67 2.592-1.951 2.211-2.86-.38-.91-1.987-1.102-3.589-.431-1.602.67-2.592 1.95-2.212 2.86.381.909 1.989 1.102 3.59.431" fill="#FFF"/>
    </g>
</svg>
